<svg width="120" height="120" viewBox="0 0 120 120" fill="none" xmlns="http://www.w3.org/2000/svg">
<rect width="120" height="120" rx="30" fill="#1D486D"/>
<path d="M52.76 89.544C52.568 90.504 51.992 91.336 51.032 92.04C50.136 92.68 48.856 93 47.192 93C45.784 93 44.664 92.616 43.832 91.848C43.064 91.08 42.648 90.28 42.584 89.448C42.968 86.76 43.16 82.728 43.16 77.352C43.16 74.152 42.968 69.224 42.584 62.568C42.136 56.296 41.912 50.728 41.912 45.864C41.912 43.24 42.04 40.552 42.296 37.8C42.296 36.904 42.808 35.944 43.832 34.92C44.92 33.896 46.392 33.256 48.248 33C54.328 32.36 61.784 32.04 70.616 32.04H73.688C75.992 32.04 78.232 32.456 80.408 33.288C82.648 34.12 83.768 35.56 83.768 37.608C83.768 38.952 83.448 40.008 82.808 40.776C82.168 41.544 80.984 41.928 79.256 41.928C78.424 41.928 77.464 41.864 76.376 41.736C75.288 41.608 74.52 41.512 74.072 41.448C71.64 41.064 69.752 40.872 68.408 40.872C60.984 40.872 55.384 41.384 51.608 42.408C51.608 44.52 51.672 47.944 51.8 52.68L51.896 58.824C55.224 58.824 58.2 58.696 60.824 58.44C63.448 58.12 64.952 57.928 65.336 57.864C68.664 57.48 70.872 57.288 71.96 57.288C73.496 57.288 74.776 57.64 75.8 58.344C76.888 58.984 77.432 60.008 77.432 61.416C77.432 64.616 75.192 66.216 70.712 66.216C69.624 66.216 68.664 66.248 67.832 66.312C67 66.376 66.296 66.44 65.72 66.504C63.416 66.76 61.592 66.888 60.248 66.888C57.304 66.888 54.808 66.984 52.76 67.176C52.76 69.544 52.856 72.04 53.048 74.664C53.048 75.496 53.08 76.776 53.144 78.504C53.272 80.232 53.336 81.8 53.336 83.208C53.336 84.424 53.304 85.544 53.24 86.568C53.176 87.592 53.016 88.584 52.76 89.544Z" fill="white"/>
</svg>
