<svg width="24" height="24" viewBox="0 0 24 24" fill="none" xmlns="http://www.w3.org/2000/svg">
<path d="M8.03699 2.01416C7.48499 2.01416 7.03699 2.46216 7.03699 3.01416C4.82599 3.01416 3.00598 4.80716 3.00598 7.01416V9.01416L3.03699 17.0142C3.03699 19.2202 4.82799 21.0142 7.03699 21.0142H17.037C19.246 21.0142 21.037 19.2232 21.037 17.0142L21.006 9.01416V7.01416C21.006 4.80316 19.244 3.01416 17.037 3.01416C17.037 2.46216 16.59 2.01416 16.037 2.01416C15.485 2.01416 15.037 2.46216 15.037 3.01416H9.03699C9.03699 2.46216 8.58999 2.01416 8.03699 2.01416ZM7.03699 5.01416C7.03699 5.56616 7.48499 6.01416 8.03699 6.01416C8.58999 6.01416 9.03699 5.56616 9.03699 5.01416H15.037C15.037 5.56616 15.485 6.01416 16.037 6.01416C16.59 6.01416 17.037 5.56616 17.037 5.01416C18.134 5.01416 19.006 5.90216 19.006 7.01416V8.01416C17.082 8.01416 6.92998 8.01416 5.00598 8.01416V7.01416C5.00598 5.91716 5.92499 5.01416 7.03699 5.01416ZM5.00598 10.0142C6.92998 10.0142 17.082 10.0142 19.006 10.0142L19.037 17.0142C19.037 18.1152 18.142 19.0142 17.037 19.0142H7.03699C5.93299 19.0142 5.03699 18.1192 5.03699 17.0142L5.00598 10.0142Z" fill="#2A343D"/>
</svg>
